<?xml version="1.0" encoding="UTF-8"?>
<svg xmlns="http://www.w3.org/2000/svg" version="1.1" width="200" height="200" viewBox="0 0 200 200"><rect x="0" y="0" width="200" height="200" fill="#ffffff"/><g transform="scale(6.897)"><g transform="translate(0,0)"><path fill-rule="evenodd" d="M9 0L9 1L8 1L8 3L9 3L9 4L8 4L8 8L6 8L6 9L4 9L4 8L3 8L3 9L2 9L2 8L0 8L0 9L1 9L1 10L0 10L0 11L1 11L1 10L3 10L3 11L2 11L2 12L1 12L1 13L2 13L2 12L3 12L3 11L4 11L4 12L5 12L5 13L7 13L7 12L8 12L8 14L9 14L9 15L7 15L7 14L4 14L4 15L5 15L5 17L2 17L2 16L1 16L1 15L2 15L2 14L1 14L1 15L0 15L0 16L1 16L1 17L2 17L2 19L3 19L3 18L4 18L4 20L3 20L3 21L4 21L4 20L6 20L6 21L8 21L8 23L10 23L10 24L9 24L9 25L8 25L8 26L10 26L10 27L8 27L8 29L9 29L9 28L10 28L10 29L11 29L11 28L12 28L12 29L13 29L13 28L14 28L14 27L15 27L15 29L16 29L16 27L15 27L15 26L14 26L14 24L16 24L16 23L15 23L15 22L14 22L14 21L16 21L16 22L17 22L17 23L18 23L18 24L17 24L17 25L18 25L18 24L20 24L20 28L19 28L19 29L22 29L22 26L23 26L23 28L24 28L24 29L25 29L25 28L26 28L26 26L25 26L25 25L26 25L26 24L27 24L27 26L28 26L28 27L27 27L27 29L28 29L28 27L29 27L29 26L28 26L28 24L29 24L29 23L28 23L28 22L29 22L29 21L27 21L27 20L29 20L29 17L28 17L28 15L29 15L29 14L27 14L27 13L29 13L29 12L28 12L28 10L29 10L29 9L28 9L28 8L26 8L26 9L25 9L25 8L22 8L22 9L21 9L21 8L20 8L20 9L21 9L21 10L19 10L19 12L22 12L22 13L23 13L23 14L22 14L22 15L21 15L21 16L22 16L22 15L24 15L24 16L25 16L25 17L26 17L26 15L27 15L27 17L28 17L28 18L27 18L27 20L26 20L26 22L27 22L27 23L25 23L25 20L22 20L22 18L23 18L23 19L24 19L24 18L23 18L23 17L20 17L20 15L18 15L18 14L20 14L20 13L18 13L18 12L17 12L17 11L18 11L18 10L17 10L17 8L19 8L19 6L20 6L20 7L21 7L21 4L20 4L20 5L19 5L19 3L21 3L21 1L20 1L20 0L17 0L17 2L16 2L16 0L12 0L12 1L11 1L11 2L9 2L9 1L10 1L10 0ZM13 1L13 3L12 3L12 4L9 4L9 5L10 5L10 6L9 6L9 7L10 7L10 8L8 8L8 9L6 9L6 10L5 10L5 11L6 11L6 12L7 12L7 11L8 11L8 12L9 12L9 13L12 13L12 12L13 12L13 10L14 10L14 13L13 13L13 15L14 15L14 16L13 16L13 17L10 17L10 15L11 15L11 16L12 16L12 14L10 14L10 15L9 15L9 18L7 18L7 17L6 17L6 18L7 18L7 19L6 19L6 20L7 20L7 19L9 19L9 18L11 18L11 19L10 19L10 20L8 20L8 21L9 21L9 22L10 22L10 23L11 23L11 24L12 24L12 23L14 23L14 22L13 22L13 20L14 20L14 18L13 18L13 17L15 17L15 19L16 19L16 20L17 20L17 21L18 21L18 22L19 22L19 23L20 23L20 21L19 21L19 20L21 20L21 19L20 19L20 17L18 17L18 19L19 19L19 20L17 20L17 19L16 19L16 16L15 16L15 15L17 15L17 13L15 13L15 12L16 12L16 11L17 11L17 10L16 10L16 9L15 9L15 7L16 7L16 8L17 8L17 7L18 7L18 3L19 3L19 2L20 2L20 1L19 1L19 2L18 2L18 3L16 3L16 2L15 2L15 1ZM14 2L14 5L15 5L15 6L14 6L14 7L15 7L15 6L16 6L16 7L17 7L17 4L16 4L16 3L15 3L15 2ZM11 5L11 6L10 6L10 7L11 7L11 6L12 6L12 8L13 8L13 9L14 9L14 8L13 8L13 6L12 6L12 5ZM10 8L10 10L9 10L9 9L8 9L8 11L11 11L11 10L12 10L12 9L11 9L11 8ZM24 9L24 10L23 10L23 12L24 12L24 15L26 15L26 13L27 13L27 12L26 12L26 13L25 13L25 11L24 11L24 10L25 10L25 9ZM26 9L26 10L28 10L28 9ZM6 10L6 11L7 11L7 10ZM14 13L14 15L15 15L15 13ZM6 15L6 16L7 16L7 15ZM0 18L0 19L1 19L1 18ZM12 18L12 19L13 19L13 18ZM25 18L25 19L26 19L26 18ZM0 20L0 21L1 21L1 20ZM11 20L11 21L12 21L12 20ZM21 21L21 24L24 24L24 21ZM22 22L22 23L23 23L23 22ZM10 25L10 26L12 26L12 27L14 27L14 26L13 26L13 25ZM23 25L23 26L24 26L24 25ZM17 26L17 29L18 29L18 27L19 27L19 26ZM0 0L0 7L7 7L7 0ZM1 1L1 6L6 6L6 1ZM2 2L2 5L5 5L5 2ZM22 0L22 7L29 7L29 0ZM23 1L23 6L28 6L28 1ZM24 2L24 5L27 5L27 2ZM0 22L0 29L7 29L7 22ZM1 23L1 28L6 28L6 23ZM2 24L2 27L5 27L5 24Z" fill="#000000"/></g></g></svg>
